<svg id="Layer_1" data-name="Layer 1" xmlns="http://www.w3.org/2000/svg" viewBox="0 0 421.71 420.98"><defs><style>.cls-1{fill:#f26d59;}.cls-2{fill:#2bdaae;}.cls-3{fill:#4c86ff;}.cls-4{fill:#f3bf56;}</style></defs><circle class="cls-1" cx="298.5" cy="91.71" r="24.02"/><path class="cls-2" d="M350.27,241.69A142.91,142.91,0,0,1,210.85,353.35a144.15,144.15,0,0,1-26-2.35A142.76,142.76,0,0,1,71.44,241.69Z"/><path class="cls-3" d="M188.77,210.52H68L143.67,84.45l10.05-16.76v61a112.58,112.58,0,0,0,31.17,77.91C186.15,208,187.45,209.25,188.77,210.52Z"/><path class="cls-4" d="M353.69,210.52H269.28a84.39,84.39,0,0,1-84.39-84.4V67.69l2.3,2,11.7,9.91,123.63,104.6,4.34,3.68,21.9,18.52Z"/></svg>